<svg id="b920ee8f-4349-462b-8674-76ee7c4b50e2" data-name="Layer 1" xmlns="http://www.w3.org/2000/svg"
  viewBox="0 0 286.14 91.89">
  <path
    d="M90.16,41.85,50,1.73a5.92,5.92,0,0,0-8.37,0L1.73,41.66a5.93,5.93,0,0,0,0,8.38L41.85,90.15a5.92,5.92,0,0,0,8.37,0L90.16,50.22A5.92,5.92,0,0,0,90.16,41.85ZM62.66,62.74a2.22,2.22,0,0,1-3,.74c-8.35-5.1-18.85-6.25-31.23-3.43a2.21,2.21,0,0,1-1-4.32c13.54-3.09,25.15-1.76,34.52,4A2.2,2.2,0,0,1,62.66,62.74ZM67,53.06h0A2.77,2.77,0,0,1,63.2,54c-9.56-5.88-24.12-7.58-35.43-4.15a2.77,2.77,0,1,1-1.61-5.3c12.91-3.92,29-2,39.94,4.72A2.78,2.78,0,0,1,67,53.06Zm4.93-11.24A3.32,3.32,0,0,1,67.38,43h0c-11.45-6.8-30.36-7.43-41.3-4.11a3.32,3.32,0,0,1-1.93-6.36c12.56-3.81,33.44-3.08,46.63,4.75A3.33,3.33,0,0,1,71.94,41.82Z"
    style="fill:#f05133" />
  <path
    d="M108.19,50.82a17.33,17.33,0,0,1-5.9-3l2.12-4.62a17.28,17.28,0,0,0,5.28,2.8,19.73,19.73,0,0,0,6,.89,10.19,10.19,0,0,0,5.54-1.26,4,4,0,0,0,1.94-3.51,3.27,3.27,0,0,0-1.8-3,22.57,22.57,0,0,0-6-2,35.21,35.21,0,0,1-7-2.16,9.89,9.89,0,0,1-4.08-3.15,8.13,8.13,0,0,1-1.38-4.87,9.4,9.4,0,0,1,1.67-5.46,11.09,11.09,0,0,1,4.72-3.76,17.22,17.22,0,0,1,7-1.35,21.61,21.61,0,0,1,6.94,1.11,15,15,0,0,1,5.41,3l-2.12,4.62a16,16,0,0,0-10.23-3.69,9.09,9.09,0,0,0-5.28,1.36,4.31,4.31,0,0,0-1.94,3.76,3.46,3.46,0,0,0,1.72,3.1,20,20,0,0,0,5.85,2,39.85,39.85,0,0,1,7.1,2.19A10.5,10.5,0,0,1,128,36.9a7.46,7.46,0,0,1,1.45,4.72,9.26,9.26,0,0,1-1.64,5.44A10.47,10.47,0,0,1,123,50.65a19.84,19.84,0,0,1-7.35,1.25A25.19,25.19,0,0,1,108.19,50.82Z" />
  <path
    d="M154.09,28.4a10.44,10.44,0,0,1,3.79,4.45,15.36,15.36,0,0,1,1.35,6.61A14.92,14.92,0,0,1,157.88,46a9.91,9.91,0,0,1-9.32,5.85A9.49,9.49,0,0,1,144,50.77a7.54,7.54,0,0,1-3.1-3V60.31h-6.15V27.41h6v3.64a7.57,7.57,0,0,1,3.12-3.12,9.57,9.57,0,0,1,4.65-1.11A10,10,0,0,1,154.09,28.4Zm-2.63,16.69a8.7,8.7,0,0,0,1.62-5.63,9.18,9.18,0,0,0-1.62-5.8,6.05,6.05,0,0,0-9.07,0,9,9,0,0,0-1.6,5.75,9,9,0,0,0,1.6,5.71,6.14,6.14,0,0,0,9.07,0Z" />
  <path
    d="M168.79,50.33a10.62,10.62,0,0,1-4.3-4.38A13.82,13.82,0,0,1,163,39.31a13.67,13.67,0,0,1,1.52-6.61,10.54,10.54,0,0,1,4.3-4.35,14.42,14.42,0,0,1,12.93,0A10.32,10.32,0,0,1,186,32.7a13.89,13.89,0,0,1,1.5,6.61A14,14,0,0,1,186,46a10.39,10.39,0,0,1-4.28,4.38,14.51,14.51,0,0,1-12.93,0Zm11-5.22a9.12,9.12,0,0,0,1.58-5.8,9.17,9.17,0,0,0-1.58-5.78,5.44,5.44,0,0,0-4.52-2,5.52,5.52,0,0,0-4.55,2,9,9,0,0,0-1.6,5.78,9.12,9.12,0,0,0,1.58,5.8,5.41,5.41,0,0,0,4.52,2A5.48,5.48,0,0,0,179.78,45.11Z" />
  <path
    d="M207,47.08l-.29,4.57a26.94,26.94,0,0,1-2.71.15q-5.06,0-7.47-2.33t-2.41-7V32h-4.62V27.41h4.62V20.23h6.15v7.18h6.34V32h-6.34V42.41q0,4.81,4.47,4.82A17.86,17.86,0,0,0,207,47.08Z" />
  <path d="M210.22,16.25H217V22.3h-6.78Zm.34,35.21v-24h6.15V51.46Z" />
  <path
    d="M252.5,32.72V49.34a23.13,23.13,0,0,1-5.72,1.87,34.18,34.18,0,0,1-6.86.69,19.15,19.15,0,0,1-9.3-2.14,14.35,14.35,0,0,1-6-6.15,20.34,20.34,0,0,1-2.09-9.51,20.29,20.29,0,0,1,2.09-9.47,14.51,14.51,0,0,1,6-6.14,18.38,18.38,0,0,1,9.07-2.14,21.49,21.49,0,0,1,6.84,1.06,14.18,14.18,0,0,1,5.31,3L249.65,25a17,17,0,0,0-4.74-2.68,15.61,15.61,0,0,0-5.14-.81q-5.36,0-8.09,3.17T229,34.1q0,12.78,11.21,12.78a24.88,24.88,0,0,0,6.69-.93v-8.7h-7.47V32.72Z" />
  <path d="M258.75,16.25h6.78V22.3h-6.78Zm.34,35.21v-24h6.15V51.46Z" />
  <path
    d="M286.14,47.08l-.3,4.57a26.76,26.76,0,0,1-2.7.15q-5.07,0-7.48-2.33c-1.6-1.56-2.41-3.88-2.41-7V32h-4.62V27.41h4.62V20.23h6.15v7.18h6.34V32H279.4V42.41q0,4.81,4.47,4.82A18,18,0,0,0,286.14,47.08Z" />
  <path
    d="M103.73,68.73h5.1a4.46,4.46,0,0,1,3,1A3.44,3.44,0,0,1,113,72.41a3.5,3.5,0,0,1-1.08,2.73,4.42,4.42,0,0,1-3,1h-3.3V81h-1.8Zm4.91,5.93c1.73,0,2.59-.75,2.59-2.25s-.86-2.24-2.59-2.24h-3.11v4.49Z"
    style="fill:#515151" />
  <path d="M114.92,81V68.73h1.77V81Z" style="fill:#515151" />
  <path
    d="M125.27,73.16a3.62,3.62,0,0,1,.83,2.6V81h-1.7V79.62a2.39,2.39,0,0,1-1,1.15,3,3,0,0,1-1.53.39,3.44,3.44,0,0,1-1.54-.34,2.66,2.66,0,0,1-1.09-.95,2.48,2.48,0,0,1-.39-1.36,2.09,2.09,0,0,1,.48-1.46,2.82,2.82,0,0,1,1.59-.76,16.09,16.09,0,0,1,3-.23h.4v-.51a2,2,0,0,0-.41-1.41,1.77,1.77,0,0,0-1.34-.44,5.56,5.56,0,0,0-2.9.89l-.53-1.24a6.22,6.22,0,0,1,1.66-.76,6.62,6.62,0,0,1,1.86-.28A3.43,3.43,0,0,1,125.27,73.16Zm-1.5,6a2.37,2.37,0,0,0,.61-1.69v-.45h-.31a13.91,13.91,0,0,0-2.1.12,2.07,2.07,0,0,0-1,.41,1.07,1.07,0,0,0-.32.83,1.31,1.31,0,0,0,.45,1,1.65,1.65,0,0,0,1.15.41A2.07,2.07,0,0,0,123.77,79.2Z"
    style="fill:#515151" />
  <path d="M134.56,72.53h1.77l-5.09,11.65h-1.79l1.49-3.35-3.58-8.3h1.85l2.66,6.52Z" transform="translate(0)"
    style="fill:#515151" />
  <path d="M137.61,81V68.73h1.76V81Z" style="fill:#515151" />
  <path d="M141.72,68.71h2v1.83h-2ZM141.84,81V72.52h1.76V81Z" style="fill:#515151" />
  <path
    d="M145.53,80.08l.54-1.28a4.86,4.86,0,0,0,3.06,1,2.47,2.47,0,0,0,1.31-.29.9.9,0,0,0,.46-.81.87.87,0,0,0-.31-.72,2.61,2.61,0,0,0-1.06-.44l-1.41-.31a3.44,3.44,0,0,1-1.72-.86,2.06,2.06,0,0,1-.57-1.5,2.25,2.25,0,0,1,.93-1.87,4,4,0,0,1,2.46-.71,5.23,5.23,0,0,1,1.73.28,4.41,4.41,0,0,1,1.42.82l-.54,1.24a4.14,4.14,0,0,0-2.61-1A2.31,2.31,0,0,0,148,74a1,1,0,0,0-.46.86.91.91,0,0,0,.29.71,1.88,1.88,0,0,0,.91.41l1.46.33a3.65,3.65,0,0,1,1.81.87,2.06,2.06,0,0,1,.58,1.52,2.14,2.14,0,0,1-.93,1.83,4.26,4.26,0,0,1-2.53.67A5.45,5.45,0,0,1,145.53,80.08Z"
    style="fill:#515151" />
  <path
    d="M159.24,79.75l-.09,1.34a5.33,5.33,0,0,1-.91.07,3.37,3.37,0,0,1-2.47-.81A3.19,3.19,0,0,1,155,78V73.88h-1.67V72.52H155V70h1.76v2.57h2.35v1.36h-2.35v4.05c0,1.25.58,1.87,1.73,1.87A6.84,6.84,0,0,0,159.24,79.75Z"
    style="fill:#515151" />
  <path d="M174.48,68.73h1.83L170.87,81h-1.52l-5.42-12.31h1.87l4.34,10Z" transform="translate(0)"
    style="fill:#515151" />
  <path
    d="M183.78,77.07h-6c.13,1.81,1,2.71,2.69,2.71a4.12,4.12,0,0,0,2.66-1l.54,1.24a4.23,4.23,0,0,1-1.47.8,5.45,5.45,0,0,1-1.78.3A4.39,4.39,0,0,1,177.16,80,4.34,4.34,0,0,1,176,76.76a5,5,0,0,1,.52-2.32A3.68,3.68,0,0,1,178,72.87a4,4,0,0,1,2.12-.56,3.45,3.45,0,0,1,2.72,1.11,4.53,4.53,0,0,1,1,3.1Zm-5.29-2.83a3.07,3.07,0,0,0-.73,1.82h4.5a3,3,0,0,0-.6-1.82,1.94,1.94,0,0,0-1.55-.64A2.1,2.1,0,0,0,178.49,74.24Z"
    style="fill:#515151" />
  <path
    d="M190.92,73.79l-1.07.11a2.61,2.61,0,0,0-1.81.76,2.44,2.44,0,0,0-.55,1.65V81h-1.77V72.52h1.72V74a3,3,0,0,1,2.78-1.66l.58,0Z"
    style="fill:#515151" />
  <path
    d="M191.5,80.08,192,78.8a4.82,4.82,0,0,0,3.06,1,2.47,2.47,0,0,0,1.31-.29.91.91,0,0,0,.45-.81.89.89,0,0,0-.3-.72,2.75,2.75,0,0,0-1.06-.44l-1.42-.31a3.41,3.41,0,0,1-1.71-.86,2,2,0,0,1-.58-1.5,2.24,2.24,0,0,1,.94-1.87,4,4,0,0,1,2.46-.71,5.27,5.27,0,0,1,1.73.28,4.26,4.26,0,0,1,1.41.82l-.54,1.24a4.13,4.13,0,0,0-2.6-1,2.31,2.31,0,0,0-1.27.31,1,1,0,0,0-.47.86.94.94,0,0,0,.29.71,1.93,1.93,0,0,0,.92.41l1.45.33a3.64,3.64,0,0,1,1.82.87,2.06,2.06,0,0,1,.58,1.52,2.13,2.13,0,0,1-.94,1.83,4.21,4.21,0,0,1-2.52.67A5.43,5.43,0,0,1,191.5,80.08Z"
    style="fill:#515151" />
  <path d="M200.35,68.71h2v1.83h-2ZM200.47,81V72.52h1.76V81Z" style="fill:#515151" />
  <path
    d="M206.2,80.62a3.61,3.61,0,0,1-1.47-1.55,4.94,4.94,0,0,1-.52-2.33,5,5,0,0,1,.52-2.35,3.59,3.59,0,0,1,1.47-1.54,4.79,4.79,0,0,1,4.42,0,3.59,3.59,0,0,1,1.47,1.54,5.15,5.15,0,0,1,.52,2.35,5.06,5.06,0,0,1-.52,2.33,3.61,3.61,0,0,1-1.47,1.55,4.79,4.79,0,0,1-4.42,0Zm4-1.62a3.58,3.58,0,0,0,.62-2.26,3.48,3.48,0,0,0-.63-2.24,2.43,2.43,0,0,0-3.57,0,3.48,3.48,0,0,0-.63,2.24,3.52,3.52,0,0,0,.63,2.26,2.49,2.49,0,0,0,3.58,0Z"
    style="fill:#515151" />
  <path
    d="M222.23,75.75V81h-1.77V75.83a2.37,2.37,0,0,0-.43-1.58,1.66,1.66,0,0,0-1.34-.51,2.28,2.28,0,0,0-1.71.66,2.45,2.45,0,0,0-.65,1.78V81h-1.77V72.52h1.74v1.36a2.87,2.87,0,0,1,1.17-1.17,3.51,3.51,0,0,1,1.69-.4C221.21,72.31,222.23,73.45,222.23,75.75Z"
    style="fill:#515151" />
  <path
    d="M231.78,80.41a5,5,0,0,1-2-2.19,8.23,8.23,0,0,1,0-6.69,5,5,0,0,1,2-2.18,6.1,6.1,0,0,1,3.11-.76,6.84,6.84,0,0,1,2.34.39,5,5,0,0,1,1.84,1.13l-.63,1.32a6,6,0,0,0-1.71-1,5.15,5.15,0,0,0-1.82-.31,3.65,3.65,0,0,0-3,1.24,6.58,6.58,0,0,0,0,7.1,3.66,3.66,0,0,0,3,1.25,5.16,5.16,0,0,0,1.82-.32,5.77,5.77,0,0,0,1.71-1l.63,1.33a5.1,5.1,0,0,1-1.84,1.13,6.84,6.84,0,0,1-2.34.39A6.1,6.1,0,0,1,231.78,80.41Z"
    style="fill:#515151" />
  <path
    d="M242.42,80.62A3.61,3.61,0,0,1,241,79.07a5.06,5.06,0,0,1-.52-2.33,5.15,5.15,0,0,1,.52-2.35,3.59,3.59,0,0,1,1.47-1.54,4.81,4.81,0,0,1,4.43,0,3.62,3.62,0,0,1,1.46,1.54,5,5,0,0,1,.52,2.35,4.94,4.94,0,0,1-.52,2.33,3.65,3.65,0,0,1-1.46,1.55,4.81,4.81,0,0,1-4.43,0Zm4-1.62a3.58,3.58,0,0,0,.62-2.26,3.48,3.48,0,0,0-.63-2.24,2.43,2.43,0,0,0-3.57,0,3.48,3.48,0,0,0-.63,2.24,3.58,3.58,0,0,0,.62,2.26,2.16,2.16,0,0,0,1.79.76A2.2,2.2,0,0,0,246.43,79Z"
    style="fill:#515151" />
  <path
    d="M258.45,75.75V81h-1.77V75.83a2.37,2.37,0,0,0-.43-1.58,1.63,1.63,0,0,0-1.33-.51,2.29,2.29,0,0,0-1.72.66,2.44,2.44,0,0,0-.64,1.78V81h-1.77V72.52h1.73v1.36a2.87,2.87,0,0,1,1.17-1.17,3.53,3.53,0,0,1,1.7-.4C257.43,72.31,258.45,73.45,258.45,75.75Z"
    style="fill:#515151" />
  <path
    d="M265.69,79.75l-.09,1.34a5.33,5.33,0,0,1-.91.07,3.37,3.37,0,0,1-2.47-.81,3.19,3.19,0,0,1-.81-2.35V73.88h-1.67V72.52h1.67V70h1.76v2.57h2.35v1.36h-2.35v4.05c0,1.25.58,1.87,1.73,1.87A6.84,6.84,0,0,0,265.69,79.75Z"
    style="fill:#515151" />
  <path
    d="M272.23,73.79l-1.06.11a2.64,2.64,0,0,0-1.82.76,2.49,2.49,0,0,0-.55,1.65V81H267V72.52h1.71V74a3,3,0,0,1,2.78-1.66l.58,0Z"
    style="fill:#515151" />
  <path
    d="M274.76,80.62a3.67,3.67,0,0,1-1.47-1.55,5.06,5.06,0,0,1-.52-2.33,5.15,5.15,0,0,1,.52-2.35,3.64,3.64,0,0,1,1.47-1.54,4.81,4.81,0,0,1,4.43,0,3.62,3.62,0,0,1,1.46,1.54,5,5,0,0,1,.52,2.35,4.94,4.94,0,0,1-.52,2.33,3.65,3.65,0,0,1-1.46,1.55,4.81,4.81,0,0,1-4.43,0Zm4-1.62a3.58,3.58,0,0,0,.62-2.26,3.48,3.48,0,0,0-.63-2.24,2.43,2.43,0,0,0-3.57,0,3.48,3.48,0,0,0-.63,2.24,3.58,3.58,0,0,0,.62,2.26,2.16,2.16,0,0,0,1.79.76A2.2,2.2,0,0,0,278.77,79Z"
    style="fill:#515151" />
  <path d="M283.13,81V68.73h1.77V81Z" style="fill:#515151" />
</svg>